# xmcd
#
# Track frame offsets: 
#        150
#        16800
#        36300
#        47850
#        84812
#        114962
#        134612
#
# Disc length: 2176 seconds
#
# Revision: 0
# Processed by: cddbd v1.5.2PL0 Copyright (c) Steve Scherf et al.
# Submitted via: ExactAudioCopyFreeDBPlugin 1.0
#
DISCID=50087e07
DTITLE=Roy Buchanan - Live Stock
DYEAR=1975
DGENRE=Blues
TTITLE0=Reelin' And Rockin
TTITLE1=Hot Cha
TTITLE2=Further On Up The Road
TTITLE3=Roy's Bluz
TTITLE4=Can I Change My Mind
TTITLE5=I'm A Ram
TTITLE6=I'm Evil
EXTD=
EXTT0=
EXTT1=
EXTT2=
EXTT3=
EXTT4=
EXTT5=
EXTT6=
PLAYORDER=
